<svg xmlns="http://www.w3.org/2000/svg" viewBox="0 0 24 34" shape-rendering="crispEdges"><rect width="24" height="34" fill="#8FCCED"/><rect x="9" y="0" width="6" height="1" fill="#101B3D"/><rect x="9" y="1" width="1" height="1" fill="#101B3D"/><rect x="10" y="1" width="4" height="1" fill="#F0B596"/><rect x="14" y="1" width="1" height="1" fill="#101B3D"/><rect x="9" y="2" width="1" height="1" fill="#101B3D"/><rect x="10" y="2" width="4" height="1" fill="#F0B596"/><rect x="14" y="2" width="1" height="1" fill="#101B3D"/><rect x="9" y="3" width="1" height="1" fill="#101B3D"/><rect x="10" y="3" width="4" height="1" fill="#F0B596"/><rect x="14" y="3" width="1" height="1" fill="#101B3D"/><rect x="9" y="4" width="1" height="1" fill="#101B3D"/><rect x="10" y="4" width="4" height="1" fill="#F0B596"/><rect x="14" y="4" width="1" height="1" fill="#101B3D"/><rect x="9" y="5" width="1" height="1" fill="#101B3D"/><rect x="10" y="5" width="4" height="1" fill="#F0B596"/><rect x="14" y="5" width="1" height="1" fill="#101B3D"/><rect x="9" y="6" width="1" height="1" fill="#101B3D"/><rect x="10" y="6" width="4" height="1" fill="#F0B596"/><rect x="14" y="6" width="1" height="1" fill="#101B3D"/><rect x="7" y="7" width="2" height="1" fill="#101B3D"/><rect x="9" y="7" width="2" height="1" fill="#FFD0AD"/><rect x="11" y="7" width="4" height="1" fill="#F0B596"/><rect x="15" y="7" width="2" height="1" fill="#101B3D"/><rect x="6" y="8" width="1" height="1" fill="#101B3D"/><rect x="7" y="8" width="1" height="1" fill="#F0B596"/><rect x="8" y="8" width="3" height="1" fill="#FFD0AD"/><rect x="11" y="8" width="6" height="1" fill="#F0B596"/><rect x="17" y="8" width="1" height="1" fill="#101B3D"/><rect x="4" y="9" width="2" height="1" fill="#101B3D"/><rect x="6" y="9" width="5" height="1" fill="#FFD0AD"/><rect x="11" y="9" width="7" height="1" fill="#F0B596"/><rect x="18" y="9" width="2" height="1" fill="#101B3D"/><rect x="3" y="10" width="1" height="1" fill="#101B3D"/><rect x="4" y="10" width="1" height="1" fill="#F0B596"/><rect x="5" y="10" width="6" height="1" fill="#FFD0AD"/><rect x="11" y="10" width="9" height="1" fill="#F0B596"/><rect x="20" y="10" width="2" height="1" fill="#101B3D"/><rect x="3" y="11" width="1" height="1" fill="#101B3D"/><rect x="4" y="11" width="1" height="1" fill="#F0B596"/><rect x="5" y="11" width="6" height="1" fill="#FFD0AD"/><rect x="11" y="11" width="10" height="1" fill="#F0B596"/><rect x="21" y="11" width="1" height="1" fill="#101B3D"/><rect x="3" y="12" width="1" height="1" fill="#101B3D"/><rect x="4" y="12" width="1" height="1" fill="#F0B596"/><rect x="5" y="12" width="6" height="1" fill="#FFD0AD"/><rect x="11" y="12" width="10" height="1" fill="#F0B596"/><rect x="21" y="12" width="1" height="1" fill="#101B3D"/><rect x="3" y="13" width="1" height="1" fill="#101B3D"/><rect x="4" y="13" width="1" height="1" fill="#F0B596"/><rect x="5" y="13" width="6" height="1" fill="#FFD0AD"/><rect x="11" y="13" width="10" height="1" fill="#F0B596"/><rect x="21" y="13" width="1" height="1" fill="#101B3D"/><rect x="3" y="14" width="1" height="1" fill="#101B3D"/><rect x="4" y="14" width="1" height="1" fill="#F0B596"/><rect x="5" y="14" width="6" height="1" fill="#FFD0AD"/><rect x="11" y="14" width="10" height="1" fill="#F0B596"/><rect x="21" y="14" width="1" height="1" fill="#101B3D"/><rect x="3" y="15" width="1" height="1" fill="#101B3D"/><rect x="4" y="15" width="1" height="1" fill="#F0B596"/><rect x="5" y="15" width="6" height="1" fill="#FFD0AD"/><rect x="11" y="15" width="10" height="1" fill="#F0B596"/><rect x="21" y="15" width="1" height="1" fill="#101B3D"/><rect x="3" y="16" width="1" height="1" fill="#101B3D"/><rect x="4" y="16" width="1" height="1" fill="#F0B596"/><rect x="5" y="16" width="6" height="1" fill="#FFD0AD"/><rect x="11" y="16" width="10" height="1" fill="#F0B596"/><rect x="21" y="16" width="1" height="1" fill="#101B3D"/><rect x="3" y="17" width="1" height="1" fill="#101B3D"/><rect x="4" y="17" width="1" height="1" fill="#F0B596"/><rect x="5" y="17" width="6" height="1" fill="#FFD0AD"/><rect x="11" y="17" width="10" height="1" fill="#F0B596"/><rect x="21" y="17" width="1" height="1" fill="#101B3D"/><rect x="3" y="18" width="1" height="1" fill="#101B3D"/><rect x="4" y="18" width="1" height="1" fill="#F0B596"/><rect x="5" y="18" width="6" height="1" fill="#FFD0AD"/><rect x="11" y="18" width="10" height="1" fill="#F0B596"/><rect x="21" y="18" width="1" height="1" fill="#101B3D"/><rect x="3" y="19" width="1" height="1" fill="#101B3D"/><rect x="4" y="19" width="1" height="1" fill="#F0B596"/><rect x="5" y="19" width="6" height="1" fill="#FFD0AD"/><rect x="11" y="19" width="10" height="1" fill="#F0B596"/><rect x="21" y="19" width="1" height="1" fill="#101B3D"/><rect x="3" y="20" width="1" height="1" fill="#101B3D"/><rect x="4" y="20" width="1" height="1" fill="#F0B596"/><rect x="5" y="20" width="6" height="1" fill="#FFD0AD"/><rect x="11" y="20" width="10" height="1" fill="#F0B596"/><rect x="21" y="20" width="1" height="1" fill="#101B3D"/><rect x="3" y="21" width="1" height="1" fill="#101B3D"/><rect x="4" y="21" width="1" height="1" fill="#F0B596"/><rect x="5" y="21" width="6" height="1" fill="#FFD0AD"/><rect x="11" y="21" width="10" height="1" fill="#F0B596"/><rect x="21" y="21" width="1" height="1" fill="#101B3D"/><rect x="3" y="22" width="1" height="1" fill="#101B3D"/><rect x="4" y="22" width="1" height="1" fill="#F0B596"/><rect x="5" y="22" width="6" height="1" fill="#FFD0AD"/><rect x="11" y="22" width="10" height="1" fill="#F0B596"/><rect x="21" y="22" width="1" height="1" fill="#101B3D"/><rect x="3" y="23" width="1" height="1" fill="#101B3D"/><rect x="4" y="23" width="1" height="1" fill="#F0B596"/><rect x="5" y="23" width="6" height="1" fill="#FFD0AD"/><rect x="11" y="23" width="10" height="1" fill="#F0B596"/><rect x="21" y="23" width="1" height="1" fill="#101B3D"/><rect x="3" y="24" width="1" height="1" fill="#101B3D"/><rect x="4" y="24" width="1" height="1" fill="#F0B596"/><rect x="5" y="24" width="6" height="1" fill="#FFD0AD"/><rect x="11" y="24" width="10" height="1" fill="#F0B596"/><rect x="21" y="24" width="1" height="1" fill="#101B3D"/><rect x="3" y="25" width="1" height="1" fill="#101B3D"/><rect x="4" y="25" width="1" height="1" fill="#F0B596"/><rect x="5" y="25" width="6" height="1" fill="#FFD0AD"/><rect x="11" y="25" width="10" height="1" fill="#F0B596"/><rect x="21" y="25" width="1" height="1" fill="#101B3D"/><rect x="3" y="26" width="1" height="1" fill="#101B3D"/><rect x="4" y="26" width="1" height="1" fill="#F0B596"/><rect x="5" y="26" width="6" height="1" fill="#FFD0AD"/><rect x="11" y="26" width="10" height="1" fill="#F0B596"/><rect x="21" y="26" width="1" height="1" fill="#101B3D"/><rect x="2" y="27" width="1" height="1" fill="#101B3D"/><rect x="3" y="27" width="1" height="1" fill="#F0B596"/><rect x="4" y="27" width="7" height="1" fill="#FFD0AD"/><rect x="11" y="27" width="11" height="1" fill="#F0B596"/><rect x="22" y="27" width="1" height="1" fill="#101B3D"/><rect x="2" y="28" width="1" height="1" fill="#101B3D"/><rect x="3" y="28" width="1" height="1" fill="#F0B596"/><rect x="4" y="28" width="2" height="1" fill="#FFD0AD"/><rect x="6" y="28" width="1" height="1" fill="#101B3D"/><rect x="7" y="28" width="4" height="1" fill="#FFD0AD"/><rect x="11" y="28" width="1" height="1" fill="#101B3D"/><rect x="12" y="28" width="3" height="1" fill="#F0B596"/><rect x="15" y="28" width="1" height="1" fill="#101B3D"/><rect x="16" y="28" width="3" height="1" fill="#F0B596"/><rect x="19" y="28" width="1" height="1" fill="#101B3D"/><rect x="20" y="28" width="2" height="1" fill="#F0B596"/><rect x="22" y="28" width="1" height="1" fill="#101B3D"/><rect x="2" y="29" width="1" height="1" fill="#101B3D"/><rect x="3" y="29" width="1" height="1" fill="#F0B596"/><rect x="4" y="29" width="1" height="1" fill="#FFD0AD"/><rect x="5" y="29" width="1" height="1" fill="#101B3D"/><rect x="7" y="29" width="1" height="1" fill="#101B3D"/><rect x="8" y="29" width="1" height="1" fill="#F0B596"/><rect x="9" y="29" width="1" height="1" fill="#FFD0AD"/><rect x="10" y="29" width="1" height="1" fill="#101B3D"/><rect x="12" y="29" width="1" height="1" fill="#101B3D"/><rect x="13" y="29" width="1" height="1" fill="#F0B596"/><rect x="14" y="29" width="1" height="1" fill="#101B3D"/><rect x="16" y="29" width="1" height="1" fill="#101B3D"/><rect x="17" y="29" width="1" height="1" fill="#F0B596"/><rect x="18" y="29" width="1" height="1" fill="#101B3D"/><rect x="20" y="29" width="1" height="1" fill="#101B3D"/><rect x="21" y="29" width="1" height="1" fill="#F0B596"/><rect x="22" y="29" width="1" height="1" fill="#101B3D"/><rect x="2" y="30" width="1" height="1" fill="#101B3D"/><rect x="3" y="30" width="1" height="1" fill="#F0B596"/><rect x="4" y="30" width="1" height="1" fill="#FFD0AD"/><rect x="5" y="30" width="1" height="1" fill="#101B3D"/><rect x="7" y="30" width="1" height="1" fill="#101B3D"/><rect x="8" y="30" width="1" height="1" fill="#F0B596"/><rect x="9" y="30" width="1" height="1" fill="#FFD0AD"/><rect x="10" y="30" width="1" height="1" fill="#101B3D"/><rect x="12" y="30" width="1" height="1" fill="#101B3D"/><rect x="13" y="30" width="1" height="1" fill="#F0B596"/><rect x="14" y="30" width="1" height="1" fill="#101B3D"/><rect x="16" y="30" width="1" height="1" fill="#101B3D"/><rect x="17" y="30" width="1" height="1" fill="#F0B596"/><rect x="18" y="30" width="1" height="1" fill="#101B3D"/><rect x="20" y="30" width="1" height="1" fill="#101B3D"/><rect x="21" y="30" width="1" height="1" fill="#F0B596"/><rect x="22" y="30" width="1" height="1" fill="#101B3D"/><rect x="2" y="31" width="1" height="1" fill="#101B3D"/><rect x="3" y="31" width="1" height="1" fill="#F0B596"/><rect x="4" y="31" width="1" height="1" fill="#FFD0AD"/><rect x="5" y="31" width="1" height="1" fill="#101B3D"/><rect x="7" y="31" width="1" height="1" fill="#101B3D"/><rect x="8" y="31" width="1" height="1" fill="#F0B596"/><rect x="9" y="31" width="1" height="1" fill="#FFD0AD"/><rect x="10" y="31" width="1" height="1" fill="#101B3D"/><rect x="12" y="31" width="1" height="1" fill="#101B3D"/><rect x="13" y="31" width="1" height="1" fill="#F0B596"/><rect x="14" y="31" width="1" height="1" fill="#101B3D"/><rect x="16" y="31" width="3" height="1" fill="#101B3D"/><rect x="20" y="31" width="3" height="1" fill="#101B3D"/><rect x="2" y="32" width="1" height="1" fill="#101B3D"/><rect x="3" y="32" width="1" height="1" fill="#F0B596"/><rect x="4" y="32" width="1" height="1" fill="#FFD0AD"/><rect x="5" y="32" width="1" height="1" fill="#101B3D"/><rect x="7" y="32" width="4" height="1" fill="#101B3D"/><rect x="12" y="32" width="3" height="1" fill="#101B3D"/><rect x="2" y="33" width="4" height="1" fill="#101B3D"/></svg>
